<?xml version="1.0" encoding="UTF-8" standalone="no"?>
<svg
   xmlns:dc="http://purl.org/dc/elements/1.1/"
   xmlns:cc="http://creativecommons.org/ns#"
   xmlns:rdf="http://www.w3.org/1999/02/22-rdf-syntax-ns#"
   xmlns:svg="http://www.w3.org/2000/svg"
   xmlns="http://www.w3.org/2000/svg"
   xmlns:sodipodi="http://sodipodi.sourceforge.net/DTD/sodipodi-0.dtd"
   xmlns:inkscape="http://www.inkscape.org/namespaces/inkscape"
   enable-background="new 0 0 24 24"
   height="17"
   id="Layer_1"
   version="1.1"
   viewBox="0 0 17 17"
   width="17"
   xml:space="preserve"
   inkscape:version="0.91 r13725"
   sodipodi:docname="delete.svg"><metadata
     id="metadata5748"><rdf:RDF><cc:Work
         rdf:about=""><dc:format>image/svg+xml</dc:format><dc:type
           rdf:resource="http://purl.org/dc/dcmitype/StillImage" /><dc:title></dc:title></cc:Work></rdf:RDF></metadata><defs
     id="defs5746" /><sodipodi:namedview
     pagecolor="#ffffff"
     bordercolor="#666666"
     borderopacity="1"
     objecttolerance="10"
     gridtolerance="10"
     guidetolerance="10"
     inkscape:pageopacity="0"
     inkscape:pageshadow="2"
     inkscape:window-width="1920"
     inkscape:window-height="1017"
     id="namedview5744"
     showgrid="false"
     inkscape:zoom="27.812867"
     inkscape:cx="2.7009777"
     inkscape:cy="11.927364"
     inkscape:window-x="-8"
     inkscape:window-y="-8"
     inkscape:window-maximized="1"
     inkscape:current-layer="Layer_1" /><path
     d="m 16.810059,2.0406885 c 0.253255,0.253479 0.253255,0.6689254 0,0.9224045 l -5.078032,5.077679 c -0.253254,0.252669 -0.253254,0.668925 0,0.923214 l 5.075605,5.079299 c 0.253254,0.253479 0.253254,0.668925 0,0.923214 l -1.848838,1.843999 c -0.254063,0.252669 -0.66995,0.252669 -0.924014,0 L 8.9607934,11.732009 c -0.2532543,-0.253479 -0.6699507,-0.253479 -0.9232051,0 l -5.0780324,5.07525 c -0.2532543,0.253479 -0.6699507,0.253479 -0.923205,0 L 0.18994074,14.96083 c -0.25325432,-0.253479 -0.25325432,-0.668925 0,-0.923214 L 5.2695914,8.960747 c 0.2532543,-0.252669 0.2532543,-0.668926 0,-0.923215 L 0.19398634,2.9574241 c -0.25406344,-0.253479 -0.25406344,-0.6697353 0,-0.9232143 L 2.0420147,0.1894008 c 0.2548726,-0.2526692 0.6699507,-0.2526692 0.9240142,8.098e-4 L 8.0392066,5.267889 C 8.29327,5.522178 8.7091573,5.522178 8.9624117,5.268699 L 14.040444,0.19345 c 0.252445,-0.2526692 0.668333,-0.2526692 0.923205,0 l 1.84641,1.8472385 z"
     id="path5742"
     style="fill:#990011;fill-opacity:1"
     inkscape:connector-curvature="0" /></svg>